# xmcd CD database file
# Copyright (C) 1993-1998 Ti Kan
# 
# Track frame offsets:
#     182
#     22370
#     30715
#     45215
#     60967
#     76095
#     98852
#     109637
#     123017
#     137795
#     150212
#     165627
#     182790
#     198242
#     217127
#     232322
# 
# Disc length: 3251 seconds
# 
# Revision: 1
# Processed by: cddbd v1.4b41PL1 Copyright (c) Steve Scherf et al.
# Submitted via: DiscPlay 4.0.3
# 
DISCID=cc0cb110
DTITLE=B.B.King - Everyday I have the blues
DYEAR=1900
DGENRE=
TTITLE0=Everyday I have the blues
TTITLE1=A new way of driving
TTITLE2=B.B. Boogie
TTITLE3=It's my own fault
TTITLE4=Walkin' and cryin'
TTITLE5=You've done lost your good thing now king
TTITLE6=Catfish blues
TTITLE7=Servant's prayer
TTITLE8=Precious lord
TTITLE9=I'm workin' on the building
TTITLE10=The letter
TTITLE11=Evil child
TTITLE12=Long night
TTITLE13=Sweet sixteen
TTITLE14=How blues can you get
TTITLE15=Playing the cost to be the boss
EXTD=
EXTT0=
EXTT1=
EXTT2=
EXTT3=
EXTT4=
EXTT5=
EXTT6=
EXTT7=
EXTT8=
EXTT9=
EXTT10=
EXTT11=
EXTT12=
EXTT13=
EXTT14=
EXTT15=
PLAYORDER=
